<svg width="1178" height="1142" viewBox="0 0 1178 1142" fill="none" xmlns="http://www.w3.org/2000/svg">
<path d="M36.8199 791.5C37.0805 791.28 37.3544 791.076 37.64 790.89C45.84 785.55 54.1 797.62 56.64 807.06C63.5667 832.58 71.7067 857.73 81.06 882.51C85.73 894.86 90.5199 907.24 95.9599 919.27C103.19 935.27 107.34 911.09 110.44 902.67C120.84 874.39 129.28 845.43 140.13 817.31C153.32 783.12 161.32 748.02 175.59 714.47C214.39 623.28 251.89 531 303.54 446.06C318.92 420.78 334.683 395.74 350.83 370.94C359.31 357.94 369.65 345.35 376.83 331.76C384.201 317.861 392.969 304.75 403 292.63C408.43 286.07 415.14 280.28 419.5 272.93C428.06 258.48 440.34 249.29 452.86 237.71C472.813 219.237 493.507 201.6 514.94 184.8C549.452 157.728 585.715 132.964 623.49 110.67C642.37 99.5567 661.61 89.0534 681.21 79.1601C735.37 51.9201 797.72 44.0001 858 46.6801C948.28 50.6801 1032.25 73.8501 1110.86 117.83C1116.86 121.15 1121.2 124.83 1123.03 131.56C1107 135 1107.51 134 1090.65 126.37C1025 96.88 958.73 72.5701 884.94 68.0001C826.27 64.3501 771.65 65.17 717.94 93.14C648.71 129.14 582.32 168.69 527.06 224.22C493.14 258.31 458.84 292.69 431.47 332.11C421.85 345.97 409.1 357.76 399.39 371.86C334.755 465.684 283.116 567.824 245.88 675.5C236.77 701.72 228.18 728.11 219.78 754.57C212.31 778.06 202.33 799.86 195.26 823.32C193.32 829.78 191.443 836.26 189.63 842.76C185.63 857.34 184.07 872.41 179.63 886.88C176.4 897.41 172.8 907.88 169.38 918.32C166.97 925.7 161.6 935.7 162.69 943.45C175.56 936.71 187.49 925.76 199.29 917.18L236.6 890.07C241.69 886.38 250.03 883.24 253.16 888.7C258.1 895.01 251.6 903.7 245.56 909.01L107.63 1029.29C101.31 1034.81 92.46 1040.63 85.25 1036.29C80.98 1033.75 79.25 1028.55 77.8 1023.79C68.11 991.4 55.33 959.32 49.3 926.26C49.3 916.26 45.46 904.87 43.75 894.96C41.85 884 39.9999 873.03 38.1999 862.05C36.7499 853.19 33.8399 844.75 33.5699 835.84C33.2599 825.57 33.2 815.29 33.01 805.02C32.92 800.2 33.2399 794.54 36.8199 791.5Z" fill="#DCD4CB"/>
</svg>
