<svg id="Graphic_Elements" data-name="Graphic Elements" xmlns="http://www.w3.org/2000/svg" viewBox="0 0 1200 1200"><title>v946-aum-11a</title><path d="M1141.18,849.5a8.3,8.3,0,0,0-.82-.61c-8.2-5.34-16.46,6.73-19,16.17q-10.39,38.28-24.42,75.45c-4.67,12.35-9.46,24.73-14.9,36.76-7.23,16-11.38-8.18-14.48-16.6-10.4-28.28-18.84-57.24-29.69-85.36-13.19-34.19-21.19-69.29-35.46-102.84C963.61,681.28,926.11,589,874.46,504.06q-23.07-37.92-47.29-75.12c-8.48-13-18.82-25.59-26-39.18A231.46,231.46,0,0,0,775,350.63c-5.43-6.56-12.14-12.35-16.5-19.7-8.56-14.45-20.84-23.64-33.36-35.22Q695.21,268,663.06,242.8a996.52,996.52,0,0,0-108.55-74.13Q526.19,152,496.79,137.16C442.63,109.92,380.28,102,320,104.68c-90.28,4-174.25,27.17-252.86,71.15-6,3.32-10.34,7-12.17,13.73C71,193,70.49,192,87.35,184.37,153,154.88,219.27,130.57,293.06,126c58.67-3.65,113.29-2.83,167,25.14,69.23,36,135.62,75.55,190.88,131.08,33.92,34.09,68.22,68.47,95.59,107.89,9.62,13.86,22.37,25.65,32.08,39.75A1262.6,1262.6,0,0,1,932.12,733.5c9.11,26.22,17.7,52.61,26.1,79.07,7.47,23.49,17.45,45.29,24.52,68.75q2.91,9.69,5.63,19.44c4,14.58,5.56,29.65,10,44.12,3.23,10.53,6.83,21,10.25,31.44,2.41,7.38,7.78,17.38,6.69,25.13-12.87-6.74-24.8-17.69-36.6-26.27L941.4,948.07c-5.09-3.69-13.43-6.83-16.56-1.37-4.94,6.31,1.56,15,7.6,20.31l137.93,120.28c6.32,5.52,15.17,11.34,22.38,7,4.27-2.54,6-7.74,7.45-12.5,9.69-32.39,22.47-64.47,28.5-97.53,0-10,3.84-21.39,5.55-31.3q2.85-16.44,5.55-32.91c1.45-8.86,4.36-17.3,4.63-26.21.31-10.27.37-20.55.56-30.82C1145.08,858.2,1144.76,852.54,1141.18,849.5Z" style="fill:#dcd4cb"/></svg>